<svg width="16" height="16" viewBox="0 0 16 16" fill="none" xmlns="http://www.w3.org/2000/svg">
<path d="M4.60607 4.38594V1.39249V4.38594ZM10.593 4.38594V1.39249V4.38594ZM3.85771 7.37939H11.3413H3.85771ZM2.36098 14.863H12.8381C13.235 14.863 13.6157 14.7053 13.8964 14.4246C14.1771 14.1439 14.3348 13.7633 14.3348 13.3663V4.38594C14.3348 3.98898 14.1771 3.60828 13.8964 3.32759C13.6157 3.0469 13.235 2.88921 12.8381 2.88921H2.36098C1.96403 2.88921 1.58333 3.0469 1.30264 3.32759C1.02195 3.60828 0.864258 3.98898 0.864258 4.38594V13.3663C0.864258 13.7633 1.02195 14.1439 1.30264 14.4246C1.58333 14.7053 1.96403 14.863 2.36098 14.863Z" stroke="#776EC9" stroke-width="1.49673" stroke-linecap="round" stroke-linejoin="round"/>
</svg>
